<svg width="279" height="279" viewBox="0 0 279 279" fill="none" xmlns="http://www.w3.org/2000/svg">
<circle cx="139.5" cy="139.5" r="139.5" fill="#212529"/>
<path d="M87.3752 161.48L98.2561 122.595C98.2963 122.456 98.3801 122.335 98.4952 122.248C98.6103 122.162 98.7503 122.115 98.8943 122.115H120.618C120.723 122.115 120.827 122.141 120.921 122.189C121.014 122.238 121.095 122.308 121.156 122.393C121.217 122.479 121.257 122.578 121.273 122.682C121.288 122.786 121.279 122.893 121.245 122.992L100.301 183.779C100.256 183.909 100.171 184.022 100.059 184.102C99.9467 184.183 99.8122 184.226 99.6742 184.226H73.5873C73.4492 184.226 73.3147 184.183 73.2024 184.102C73.09 184.022 73.0053 183.909 72.96 183.779L52.0382 122.992C52.0032 122.893 51.9927 122.786 52.0076 122.681C52.0226 122.577 52.0625 122.477 52.124 122.391C52.1855 122.305 52.2667 122.235 52.361 122.187C52.4552 122.139 52.5596 122.114 52.6654 122.115H74.389C74.533 122.115 74.673 122.162 74.7881 122.248C74.9031 122.335 74.987 122.456 75.0272 122.595L86.099 161.48C86.1396 161.618 86.2238 161.738 86.3388 161.824C86.4538 161.91 86.5935 161.957 86.7371 161.957C86.8807 161.957 87.0204 161.91 87.1354 161.824C87.2504 161.738 87.3345 161.618 87.3752 161.48Z" fill="#DEE2E6"/>
<path d="M134.897 122.774V183.561C134.897 183.736 134.827 183.905 134.704 184.029C134.58 184.154 134.412 184.225 134.237 184.226H113.849C113.673 184.226 113.504 184.156 113.379 184.031C113.254 183.907 113.184 183.737 113.184 183.561V122.774C113.185 122.599 113.256 122.431 113.381 122.308C113.505 122.184 113.674 122.115 113.849 122.115H134.253C134.425 122.119 134.589 122.191 134.709 122.314C134.83 122.437 134.897 122.602 134.897 122.774Z" fill="#DEE2E6"/>
<path d="M133.315 143.667L148.308 122.409C148.37 122.322 148.451 122.251 148.547 122.203C148.642 122.154 148.747 122.13 148.854 122.131H173.184C173.315 122.122 173.445 122.151 173.558 122.216C173.672 122.281 173.763 122.377 173.822 122.494C173.88 122.611 173.903 122.742 173.886 122.872C173.87 123.001 173.815 123.123 173.73 123.221L150.381 152.933C150.287 153.05 150.235 153.195 150.235 153.345C150.235 153.495 150.287 153.64 150.381 153.756L174.106 183.158C174.187 183.255 174.239 183.373 174.255 183.499C174.271 183.624 174.251 183.751 174.197 183.866C174.143 183.98 174.058 184.077 173.951 184.144C173.844 184.212 173.72 184.248 173.594 184.248H148.859C148.751 184.248 148.645 184.221 148.549 184.169C148.454 184.118 148.373 184.044 148.314 183.953L133.326 161.714" fill="#DEE2E6"/>
<path d="M226.602 157.539H185.642C185.632 157.54 185.622 157.543 185.613 157.547C185.604 157.552 185.596 157.558 185.589 157.565C185.583 157.573 185.578 157.582 185.574 157.591C185.571 157.601 185.57 157.611 185.571 157.621C185.8 160.979 186.74 163.481 188.39 165.127C189.227 165.953 190.223 166.6 191.319 167.029C192.414 167.457 193.585 167.657 194.761 167.618C198.317 167.618 200.877 166.046 202.44 162.903C202.462 162.856 202.497 162.817 202.541 162.789C202.584 162.761 202.634 162.746 202.686 162.745H224.857C224.954 162.745 225.05 162.768 225.137 162.811C225.224 162.853 225.301 162.915 225.36 162.992C225.42 163.069 225.462 163.158 225.482 163.253C225.503 163.348 225.501 163.446 225.478 163.54C224.495 167.449 222.648 171.089 220.073 174.191C217.239 177.598 213.658 180.306 209.607 182.106C205.217 184.061 200.456 185.043 195.65 184.984C189.516 184.984 184.062 183.692 179.288 181.108C174.571 178.57 170.687 174.726 168.101 170.038C165.4 165.241 164.053 159.594 164.06 153.097C164.067 146.6 165.396 140.967 168.047 136.2C170.614 131.53 174.481 127.703 179.179 125.184C183.953 122.607 189.443 121.319 195.65 121.319C201.773 121.319 207.2 122.575 211.93 125.086C216.593 127.534 220.443 131.284 223.013 135.878C225.671 140.569 227 146.087 227 152.432C227 154.114 226.891 155.795 226.673 157.463C226.674 157.473 226.674 157.483 226.671 157.493C226.668 157.502 226.663 157.511 226.656 157.519C226.649 157.526 226.641 157.532 226.631 157.535C226.622 157.539 226.612 157.54 226.602 157.539ZM199.877 147.025C200.604 147.026 201.315 146.804 201.913 146.39C202.511 145.975 202.967 145.388 203.221 144.706C203.475 144.025 203.513 143.282 203.332 142.578C203.15 141.873 202.757 141.242 202.206 140.767C200.342 139.224 197.976 138.417 195.557 138.5C192.903 138.5 190.721 139.227 189.012 140.68C187.303 142.134 186.196 144.219 185.691 146.938C185.689 146.948 185.69 146.959 185.693 146.969C185.695 146.979 185.7 146.988 185.707 146.997C185.714 147.005 185.722 147.012 185.731 147.016C185.741 147.021 185.751 147.024 185.762 147.025H199.877Z" fill="#DEE2E6"/>
<path d="M134.613 94H113.462C113.318 94 113.2 94.1171 113.2 94.2616V115.4C113.2 115.544 113.318 115.661 113.462 115.661H134.613C134.758 115.661 134.875 115.544 134.875 115.4V94.2616C134.875 94.1171 134.758 94 134.613 94Z" fill="#DEE2E6"/>
</svg>
