<svg width="325" height="167" viewBox="0 0 325 167" fill="none" xmlns="http://www.w3.org/2000/svg">
<path d="M65.6968 123.837L85.9043 52.4757C85.9788 52.2221 86.1346 51.9992 86.3482 51.8405C86.5619 51.6818 86.822 51.5958 87.0894 51.5954H127.433C127.629 51.5964 127.822 51.6432 127.995 51.732C128.169 51.8209 128.319 51.9492 128.433 52.1065C128.547 52.2637 128.621 52.4454 128.65 52.6365C128.678 52.8277 128.661 53.0228 128.598 53.2059L89.7027 164.759C89.6186 164.998 89.4613 165.206 89.2526 165.353C89.0439 165.5 88.7941 165.579 88.5378 165.58H40.0907C39.8343 165.579 39.5845 165.5 39.3758 165.353C39.1671 165.206 39.0099 164.998 38.9258 164.759L0.0708854 53.2059C0.00593487 53.0228 -0.0135119 52.827 0.0142249 52.6349C0.0419618 52.4428 0.116073 52.2601 0.230264 52.1023C0.344456 51.9444 0.495394 51.8159 0.67038 51.7277C0.845365 51.6395 1.03926 51.5941 1.23572 51.5954H41.5796C41.847 51.5958 42.1071 51.6818 42.3208 51.8405C42.5344 51.9992 42.6902 52.2221 42.7647 52.4757L63.3266 123.837C63.4022 124.09 63.5585 124.311 63.7721 124.469C63.9856 124.626 64.2451 124.712 64.5118 124.712C64.7784 124.712 65.0379 124.626 65.2515 124.469C65.4651 124.311 65.6213 124.09 65.6968 123.837Z" fill="#DEE2E6"/>
<path d="M153.951 52.8058V164.359C153.951 164.681 153.822 164.99 153.593 165.219C153.363 165.447 153.051 165.577 152.725 165.58H114.863C114.535 165.58 114.221 165.451 113.989 165.222C113.758 164.993 113.627 164.683 113.627 164.359V52.8058C113.63 52.4839 113.761 52.176 113.993 51.9493C114.224 51.7226 114.537 51.5954 114.863 51.5954H152.756C153.076 51.6033 153.38 51.7342 153.603 51.9604C153.826 52.1865 153.951 52.4899 153.951 52.8058Z" fill="#DEE2E6"/>
<path d="M151.014 91.1473L178.858 52.1356C178.972 51.9755 179.124 51.8453 179.301 51.7563C179.477 51.6674 179.673 51.6225 179.871 51.6254H225.057C225.299 51.6084 225.54 51.6626 225.751 51.7811C225.962 51.8997 226.132 52.0773 226.24 52.2914C226.349 52.5056 226.39 52.7467 226.36 52.9843C226.33 53.2219 226.229 53.4452 226.07 53.626L182.707 108.152C182.532 108.366 182.437 108.633 182.437 108.908C182.437 109.183 182.532 109.449 182.707 109.663L226.769 163.619C226.919 163.797 227.014 164.014 227.044 164.244C227.074 164.475 227.037 164.708 226.937 164.918C226.837 165.128 226.678 165.306 226.48 165.43C226.282 165.554 226.051 165.62 225.817 165.62H179.881C179.681 165.619 179.483 165.57 179.306 165.475C179.129 165.381 178.979 165.245 178.868 165.079L151.034 124.267" fill="#DEE2E6"/>
<path d="M324.261 116.605H248.192C248.173 116.606 248.155 116.611 248.138 116.619C248.121 116.628 248.107 116.639 248.094 116.653C248.082 116.667 248.073 116.683 248.067 116.701C248.061 116.718 248.059 116.737 248.06 116.755C248.485 122.917 250.231 127.508 253.297 130.529C254.85 132.046 256.7 133.234 258.735 134.02C260.769 134.806 262.944 135.173 265.127 135.1C271.732 135.1 276.485 132.216 279.389 126.448C279.43 126.363 279.495 126.29 279.575 126.239C279.656 126.188 279.749 126.16 279.845 126.158H321.019C321.2 126.159 321.378 126.2 321.54 126.279C321.702 126.357 321.844 126.471 321.955 126.612C322.066 126.752 322.144 126.916 322.182 127.09C322.22 127.264 322.217 127.445 322.174 127.618C320.347 134.792 316.917 141.47 312.136 147.164C306.873 153.416 300.222 158.387 292.699 161.688C284.546 165.277 275.703 167.079 266.778 166.97C255.387 166.97 245.258 164.599 236.391 159.858C227.632 155.2 220.419 148.146 215.617 139.542C210.599 130.739 208.098 120.376 208.111 108.452C208.125 96.5289 210.593 86.1925 215.515 77.4432C220.284 68.8732 227.464 61.8514 236.189 57.2272C245.055 52.4991 255.252 50.135 266.778 50.135C278.15 50.135 288.228 52.439 297.014 57.0471C305.672 61.5409 312.822 68.4217 317.596 76.853C322.532 85.4623 325 95.5886 325 107.232C325 110.319 324.797 113.403 324.392 116.465C324.396 116.483 324.394 116.502 324.389 116.52C324.384 116.537 324.374 116.554 324.362 116.567C324.349 116.581 324.333 116.591 324.316 116.598C324.298 116.604 324.279 116.607 324.261 116.605ZM274.628 97.3091C275.98 97.3114 277.299 96.9048 278.41 96.1441C279.52 95.3835 280.368 94.3052 280.839 93.0544C281.31 91.8035 281.382 90.4402 281.045 89.1479C280.708 87.8555 279.978 86.6961 278.954 85.8257C275.492 82.9929 271.099 81.5123 266.606 81.6645C261.677 81.6645 257.625 82.9982 254.451 85.6657C251.278 88.3331 249.221 92.1609 248.283 97.1491C248.28 97.1683 248.281 97.1878 248.286 97.2065C248.292 97.2252 248.301 97.2426 248.313 97.2576C248.325 97.2727 248.341 97.285 248.358 97.2939C248.376 97.3028 248.395 97.3079 248.415 97.3091H274.628Z" fill="#DEE2E6"/>
<path d="M153.424 0H114.144C113.875 0 113.658 0.214968 113.658 0.480144V39.2718C113.658 39.5369 113.875 39.7519 114.144 39.7519H153.424C153.693 39.7519 153.91 39.5369 153.91 39.2718V0.480144C153.91 0.214968 153.693 0 153.424 0Z" fill="#DEE2E6"/>
</svg>
